<?xml version="1.0" encoding="UTF-8"?>
<!DOCTYPE svg PUBLIC "-//W3C//DTD SVG 1.1//EN" "http://www.w3.org/Graphics/SVG/1.1/DTD/svg11.dtd">
<svg xmlns="http://www.w3.org/2000/svg" version="1.1" width="500px" height="500px" style="shape-rendering:geometricPrecision; text-rendering:geometricPrecision; image-rendering:optimizeQuality; fill-rule:evenodd; clip-rule:evenodd" xmlns:xlink="http://www.w3.org/1999/xlink">
<g><path style="opacity:1" fill="#f6f6f6" d="M 242.5,85.5 C 243.918,87.3079 245.918,87.9746 248.5,87.5C 248.833,87.5 249.167,87.5 249.5,87.5C 251.792,89.2671 254.458,90.2671 257.5,90.5C 258.167,90.8333 258.833,91.1667 259.5,91.5C 260.514,92.6737 261.847,93.3404 263.5,93.5C 265.434,94.1103 267.101,95.1103 268.5,96.5C 268.833,97.5 269.5,98.1667 270.5,98.5C 271.167,98.8333 271.833,99.1667 272.5,99.5C 272.833,100.5 273.5,101.167 274.5,101.5C 276.833,104.5 279.5,107.167 282.5,109.5C 283.08,111.749 284.413,113.415 286.5,114.5C 287.167,115.167 287.833,115.833 288.5,116.5C 288.157,118.483 288.824,119.817 290.5,120.5C 291.6,121.605 292.267,122.938 292.5,124.5C 292.66,126.153 293.326,127.486 294.5,128.5C 295.11,129.391 295.443,130.391 295.5,131.5C 295.926,135.427 296.926,139.093 298.5,142.5C 299.265,145.096 299.599,147.763 299.5,150.5C 299.5,153.833 299.5,157.167 299.5,160.5C 307.833,160.5 316.167,160.5 324.5,160.5C 324.825,152.981 324.492,145.648 323.5,138.5C 322.583,135.583 321.916,132.583 321.5,129.5C 321.741,127.102 321.074,125.102 319.5,123.5C 316.919,117.463 313.585,111.797 309.5,106.5C 309.446,104.368 308.446,103.035 306.5,102.5C 302.474,98.8051 298.474,95.1384 294.5,91.5C 294.047,90.5416 293.381,89.7083 292.5,89C 293.448,88.5172 294.448,88.3505 295.5,88.5C 295.833,88.5 296.167,88.5 296.5,88.5C 297.78,89.9313 299.447,90.5979 301.5,90.5C 305.62,91.7256 309.287,93.7256 312.5,96.5C 312.973,97.9063 313.973,98.573 315.5,98.5C 317.523,101.52 320.19,103.854 323.5,105.5C 323.738,107.404 324.738,108.738 326.5,109.5C 327.5,109.833 328.167,110.5 328.5,111.5C 328.427,113.027 329.094,114.027 330.5,114.5C 330.738,116.404 331.738,117.738 333.5,118.5C 335.008,120.181 336.008,122.181 336.5,124.5C 336.66,126.153 337.326,127.486 338.5,128.5C 339.11,129.391 339.443,130.391 339.5,131.5C 339.528,134.916 340.528,137.916 342.5,140.5C 343.207,143.786 343.54,147.119 343.5,150.5C 343.5,159.833 343.5,169.167 343.5,178.5C 322.833,178.5 302.167,178.5 281.5,178.5C 281.827,168.652 281.494,158.986 280.5,149.5C 280.567,148.041 280.234,146.708 279.5,145.5C 278.545,143.254 277.878,140.921 277.5,138.5C 277.771,136.62 277.104,135.287 275.5,134.5C 274.89,133.609 274.557,132.609 274.5,131.5C 274.13,128.733 272.796,126.733 270.5,125.5C 270.446,123.368 269.446,122.035 267.5,121.5C 265.167,119.833 263.167,117.833 261.5,115.5C 260.738,113.738 259.404,112.738 257.5,112.5C 255.847,112.34 254.514,111.674 253.5,110.5C 253.027,109.094 252.027,108.427 250.5,108.5C 250.167,108.5 249.833,108.5 249.5,108.5C 246.374,106.01 242.708,104.677 238.5,104.5C 234.798,104.579 231.132,104.246 227.5,103.5C 223.154,104.168 218.82,104.835 214.5,105.5C 212.102,105.259 210.102,105.926 208.5,107.5C 207.167,108.167 205.833,108.833 204.5,109.5C 202.62,109.229 201.287,109.896 200.5,111.5C 186.383,120.722 178.049,133.722 175.5,150.5C 174.506,159.652 174.173,168.985 174.5,178.5C 168.5,178.5 162.5,178.5 156.5,178.5C 156.5,167.5 156.5,156.5 156.5,145.5C 156.5,145.167 156.5,144.833 156.5,144.5C 157.924,142.485 158.59,140.152 158.5,137.5C 158.366,135.708 158.699,134.042 159.5,132.5C 161.213,131.365 161.88,129.698 161.5,127.5C 161.989,126.005 162.655,124.671 163.5,123.5C 164.401,122.71 165.068,121.71 165.5,120.5C 165.328,119.508 165.662,118.842 166.5,118.5C 167.906,118.027 168.573,117.027 168.5,115.5C 168.738,113.596 169.738,112.262 171.5,111.5C 172.906,111.027 173.573,110.027 173.5,108.5C 174.167,108.5 174.5,108.167 174.5,107.5C 176.144,107.19 177.144,106.19 177.5,104.5C 177.5,103.833 177.833,103.5 178.5,103.5C 180.404,103.262 181.738,102.262 182.5,100.5C 185.089,99.5806 187.089,97.914 188.5,95.5C 189.167,95.1667 189.833,94.8333 190.5,94.5C 192.027,94.573 193.027,93.9063 193.5,92.5C 194.93,91.4625 196.597,90.7959 198.5,90.5C 201.491,90.8337 203.824,89.8337 205.5,87.5C 206.167,87.5 206.833,87.5 207.5,87.5C 209.898,87.7406 211.898,87.0739 213.5,85.5C 223.068,84.1835 232.735,84.1835 242.5,85.5 Z"/></g>
<g><path style="opacity:0.388" fill="#353535" d="M 289.5,86.5 C 288.508,86.3284 287.842,86.6618 287.5,87.5C 286.5,87.5 285.5,87.5 284.5,87.5C 284.281,86.325 284.614,85.325 285.5,84.5C 287.026,84.9943 288.359,85.661 289.5,86.5 Z"/></g>
<g><path style="opacity:0.882" fill="#939393" d="M 213.5,85.5 C 211.898,87.0739 209.898,87.7406 207.5,87.5C 209.102,85.9261 211.102,85.2594 213.5,85.5 Z"/></g>
<g><path style="opacity:0.906" fill="#979797" d="M 242.5,85.5 C 244.786,85.595 246.786,86.2616 248.5,87.5C 245.918,87.9746 243.918,87.3079 242.5,85.5 Z"/></g>
<g><path style="opacity:0.004" fill="#323232" d="M 249.5,87.5 C 252.649,87.4152 255.316,88.4152 257.5,90.5C 254.458,90.2671 251.792,89.2671 249.5,87.5 Z"/></g>
<g><path style="opacity:0.988" fill="#999999" d="M 289.5,86.5 C 291.786,86.595 293.786,87.2616 295.5,88.5C 294.448,88.3505 293.448,88.5172 292.5,89C 293.381,89.7083 294.047,90.5416 294.5,91.5C 291.996,90.4161 289.663,89.0828 287.5,87.5C 287.842,86.6618 288.508,86.3284 289.5,86.5 Z"/></g>
<g><path style="opacity:0.898" fill="#909090" d="M 205.5,87.5 C 203.824,89.8337 201.491,90.8337 198.5,90.5C 200.426,88.7073 202.759,87.7073 205.5,87.5 Z"/></g>
<g><path style="opacity:0.345" fill="#4e4e4e" d="M 296.5,88.5 C 298.553,88.4021 300.22,89.0687 301.5,90.5C 299.447,90.5979 297.78,89.9313 296.5,88.5 Z"/></g>
<g><path style="opacity:0.043" fill="#212121" d="M 259.5,91.5 C 261.38,91.2291 262.713,91.8958 263.5,93.5C 261.847,93.3404 260.514,92.6737 259.5,91.5 Z"/></g>
<g><path style="opacity:0.467" fill="#454545" d="M 193.5,92.5 C 193.027,93.9063 192.027,94.573 190.5,94.5C 190.973,93.0937 191.973,92.427 193.5,92.5 Z"/></g>
<g><path style="opacity:0.012" fill="#222222" d="M 268.5,96.5 C 269.833,96.5 270.5,97.1667 270.5,98.5C 269.5,98.1667 268.833,97.5 268.5,96.5 Z"/></g>
<g><path style="opacity:0.008" fill="#232323" d="M 312.5,96.5 C 314.027,96.427 315.027,97.0937 315.5,98.5C 313.973,98.573 312.973,97.9063 312.5,96.5 Z"/></g>
<g><path style="opacity:0.757" fill="#727272" d="M 188.5,95.5 C 187.089,97.914 185.089,99.5806 182.5,100.5C 183.911,98.086 185.911,96.4194 188.5,95.5 Z"/></g>
<g><path style="opacity:0.008" fill="#1a1a1a" d="M 272.5,99.5 C 273.833,99.5 274.5,100.167 274.5,101.5C 273.5,101.167 272.833,100.5 272.5,99.5 Z"/></g>
<g><path style="opacity:0.004" fill="#3b3b3b" d="M 315.5,98.5 C 318.784,100.117 321.451,102.45 323.5,105.5C 320.19,103.854 317.523,101.52 315.5,98.5 Z"/></g>
<g><path style="opacity:0.584" fill="#6a6a6a" d="M 182.5,100.5 C 181.738,102.262 180.404,103.262 178.5,103.5C 179.262,101.738 180.596,100.738 182.5,100.5 Z"/></g>
<g><path style="opacity:0.008" fill="#343434" d="M 274.5,101.5 C 278.167,103.167 280.833,105.833 282.5,109.5C 279.5,107.167 276.833,104.5 274.5,101.5 Z"/></g>
<g><path style="opacity:0.706" fill="#636363" d="M 238.5,104.5 C 242.708,104.677 246.374,106.01 249.5,108.5C 245.605,107.538 241.939,106.204 238.5,104.5 Z"/></g>
<g><path style="opacity:0.537" fill="#656565" d="M 306.5,102.5 C 308.446,103.035 309.446,104.368 309.5,106.5C 308.026,105.564 307.026,104.23 306.5,102.5 Z"/></g>
<g><path style="opacity:0.722" fill="#5c5c5c" d="M 177.5,104.5 C 177.144,106.19 176.144,107.19 174.5,107.5C 174.856,105.81 175.856,104.81 177.5,104.5 Z"/></g>
<g><path style="opacity:0.086" fill="#333333" d="M 214.5,105.5 C 212.786,106.738 210.786,107.405 208.5,107.5C 210.102,105.926 212.102,105.259 214.5,105.5 Z"/></g>
<g><path style="opacity:0.529" fill="#484848" d="M 323.5,105.5 C 325.262,106.262 326.262,107.596 326.5,109.5C 324.738,108.738 323.738,107.404 323.5,105.5 Z"/></g>
<g><path style="opacity:0.549" fill="#545454" d="M 173.5,108.5 C 173.573,110.027 172.906,111.027 171.5,111.5C 171.427,109.973 172.094,108.973 173.5,108.5 Z"/></g>
<g><path style="opacity:0.271" fill="#4f4f4f" d="M 250.5,108.5 C 252.027,108.427 253.027,109.094 253.5,110.5C 251.973,110.573 250.973,109.906 250.5,108.5 Z"/></g>
<g><path style="opacity:0.012" fill="#2c2c2c" d="M 204.5,109.5 C 203.486,110.674 202.153,111.34 200.5,111.5C 201.287,109.896 202.62,109.229 204.5,109.5 Z"/></g>
<g><path style="opacity:0.612" fill="#717171" d="M 257.5,112.5 C 259.404,112.738 260.738,113.738 261.5,115.5C 259.596,115.262 258.262,114.262 257.5,112.5 Z"/></g>
<g><path style="opacity:0.282" fill="#555555" d="M 282.5,109.5 C 284.587,110.585 285.92,112.251 286.5,114.5C 284.413,113.415 283.08,111.749 282.5,109.5 Z"/></g>
<g><path style="opacity:0.353" fill="#4e4e4e" d="M 328.5,111.5 C 329.906,111.973 330.573,112.973 330.5,114.5C 329.094,114.027 328.427,113.027 328.5,111.5 Z"/></g>
<g><path style="opacity:0.475" fill="#565656" d="M 330.5,114.5 C 332.262,115.262 333.262,116.596 333.5,118.5C 331.738,117.738 330.738,116.404 330.5,114.5 Z"/></g>
<g><path style="opacity:0.412" fill="#5e5e5e" d="M 168.5,115.5 C 168.573,117.027 167.906,118.027 166.5,118.5C 166.427,116.973 167.094,115.973 168.5,115.5 Z"/></g>
<g><path style="opacity:0.894" fill="#6e6e6e" d="M 288.5,116.5 C 289.674,117.514 290.34,118.847 290.5,120.5C 288.824,119.817 288.157,118.483 288.5,116.5 Z"/></g>
<g><path style="opacity:0.063" fill="#2c2c2c" d="M 165.5,120.5 C 165.068,121.71 164.401,122.71 163.5,123.5C 163.285,121.821 163.952,120.821 165.5,120.5 Z"/></g>
<g><path style="opacity:0.906" fill="#777777" d="M 267.5,121.5 C 269.446,122.035 270.446,123.368 270.5,125.5C 269.026,124.564 268.026,123.23 267.5,121.5 Z"/></g>
<g><path style="opacity:0.894" fill="#6d6d6d" d="M 270.5,125.5 C 272.796,126.733 274.13,128.733 274.5,131.5C 272.684,129.882 271.351,127.882 270.5,125.5 Z"/></g>
<g><path style="opacity:0.063" fill="#262626" d="M 292.5,124.5 C 294.104,125.287 294.771,126.62 294.5,128.5C 293.326,127.486 292.66,126.153 292.5,124.5 Z"/></g>
<g><path style="opacity:0.51" fill="#686868" d="M 319.5,123.5 C 321.074,125.102 321.741,127.102 321.5,129.5C 320.262,127.786 319.595,125.786 319.5,123.5 Z"/></g>
<g><path style="opacity:0.071" fill="#2f2f2f" d="M 336.5,124.5 C 338.104,125.287 338.771,126.62 338.5,128.5C 337.326,127.486 336.66,126.153 336.5,124.5 Z"/></g>
<g><path style="opacity:0.745" fill="#606060" d="M 161.5,127.5 C 161.88,129.698 161.213,131.365 159.5,132.5C 159.402,130.447 160.069,128.78 161.5,127.5 Z"/></g>
<g><path style="opacity:0.741" fill="#5f5f5f" d="M 295.5,131.5 C 297.483,134.799 298.483,138.466 298.5,142.5C 296.926,139.093 295.926,135.427 295.5,131.5 Z"/></g>
<g><path style="opacity:0.776" fill="#5c5c5c" d="M 339.5,131.5 C 341.472,134.084 342.472,137.084 342.5,140.5C 340.528,137.916 339.528,134.916 339.5,131.5 Z"/></g>
<g><path style="opacity:0.333" fill="#484848" d="M 275.5,134.5 C 277.104,135.287 277.771,136.62 277.5,138.5C 276.326,137.486 275.66,136.153 275.5,134.5 Z"/></g>
<g><path style="opacity:0.42" fill="#686868" d="M 158.5,137.5 C 158.59,140.152 157.924,142.485 156.5,144.5C 156.41,141.848 157.076,139.515 158.5,137.5 Z"/></g>
<g><path style="opacity:0.502" fill="#737373" d="M 156.5,145.5 C 156.5,156.5 156.5,167.5 156.5,178.5C 162.5,178.5 168.5,178.5 174.5,178.5C 174.173,168.985 174.506,159.652 175.5,150.5C 175.5,160.167 175.5,169.833 175.5,179.5C 168.833,179.5 162.167,179.5 155.5,179.5C 155.172,167.988 155.505,156.654 156.5,145.5 Z"/></g>
<g><path style="opacity:0.013" fill="#171717" d="M 279.5,145.5 C 280.234,146.708 280.567,148.041 280.5,149.5C 280.5,159.5 280.5,169.5 280.5,179.5C 279.813,168.628 279.146,157.628 278.5,146.5C 278.624,145.893 278.957,145.56 279.5,145.5 Z"/></g>
<g><path style="opacity:0.23" fill="#343434" d="M 323.5,138.5 C 324.492,145.648 324.825,152.981 324.5,160.5C 316.167,160.5 307.833,160.5 299.5,160.5C 299.5,157.167 299.5,153.833 299.5,150.5C 300.477,153.287 300.81,156.287 300.5,159.5C 308.167,159.5 315.833,159.5 323.5,159.5C 323.404,152.252 323.404,145.252 323.5,138.5 Z"/></g>
<g><path style="opacity:0.548" fill="#797979" d="M 280.5,149.5 C 281.494,158.986 281.827,168.652 281.5,178.5C 302.167,178.5 322.833,178.5 343.5,178.5C 343.5,169.167 343.5,159.833 343.5,150.5C 344.494,159.986 344.827,169.652 344.5,179.5C 323.167,179.5 301.833,179.5 280.5,179.5C 280.5,169.5 280.5,159.5 280.5,149.5 Z"/></g>
<g><path style="opacity:0.299" fill="#4a4a4a" d="M 156.5,206.5 C 156.5,206.833 156.5,207.167 156.5,207.5C 156.209,235.854 156.542,264.188 157.5,292.5C 156.778,292.082 156.278,291.416 156,290.5C 155.17,262.33 155.336,234.33 156.5,206.5 Z"/></g>
<g><path style="opacity:1" fill="#f8f8f8" d="M 156.5,207.5 C 218.5,207.5 280.5,207.5 342.5,207.5C 342.5,213.167 342.5,218.833 342.5,224.5C 286.664,224.168 230.998,224.501 175.5,225.5C 174.167,244.167 174.167,262.833 175.5,281.5C 176.15,283.435 176.483,285.435 176.5,287.5C 176.171,290.228 176.837,292.562 178.5,294.5C 180.105,297.378 181.439,300.378 182.5,303.5C 182.427,305.027 183.094,306.027 184.5,306.5C 184.427,308.027 185.094,309.027 186.5,309.5C 188.833,311.167 190.833,313.167 192.5,315.5C 193.035,317.446 194.368,318.446 196.5,318.5C 197.5,319.167 198.5,319.833 199.5,320.5C 199.973,321.906 200.973,322.573 202.5,322.5C 204.062,322.733 205.395,323.4 206.5,324.5C 207.78,325.931 209.447,326.598 211.5,326.5C 221.408,328.762 231.408,329.095 241.5,327.5C 244.716,327.655 247.383,326.655 249.5,324.5C 250.605,323.4 251.938,322.733 253.5,322.5C 255.027,322.573 256.027,321.906 256.5,320.5C 258.555,318.445 260.888,316.779 263.5,315.5C 264.833,314.833 265.833,313.833 266.5,312.5C 266.5,311.833 266.833,311.5 267.5,311.5C 269.262,310.738 270.262,309.404 270.5,307.5C 270.932,306.29 271.599,305.29 272.5,304.5C 273.906,304.027 274.573,303.027 274.5,301.5C 276.773,296.015 278.439,290.348 279.5,284.5C 280.268,283.737 280.768,282.737 281,281.5C 281.5,272.506 281.666,263.506 281.5,254.5C 301.833,254.5 322.167,254.5 342.5,254.5C 342.5,266.167 342.5,277.833 342.5,289.5C 342.795,291.735 342.461,293.735 341.5,295.5C 339.72,296.99 339.054,298.99 339.5,301.5C 339.443,302.609 339.11,303.609 338.5,304.5C 337.326,305.514 336.66,306.847 336.5,308.5C 336.267,310.062 335.6,311.395 334.5,312.5C 333.094,312.973 332.427,313.973 332.5,315.5C 324.369,329.302 312.702,338.636 297.5,343.5C 294.752,343.598 294.086,342.598 295.5,340.5C 297.749,339.92 299.415,338.587 300.5,336.5C 302.5,333.833 304.833,331.5 307.5,329.5C 308.906,329.027 309.573,328.027 309.5,326.5C 310.512,325.128 311.512,323.795 312.5,322.5C 313.906,322.027 314.573,321.027 314.5,319.5C 315.895,315.71 317.562,312.043 319.5,308.5C 321.655,306.383 322.655,303.716 322.5,300.5C 322.325,298.379 322.659,296.379 323.5,294.5C 324.811,287.068 324.811,279.735 323.5,272.5C 315.833,272.5 308.167,272.5 300.5,272.5C 300.453,280.424 299.453,288.09 297.5,295.5C 295.787,296.635 295.12,298.302 295.5,300.5C 295.443,301.609 295.11,302.609 294.5,303.5C 293.069,304.78 292.402,306.447 292.5,308.5C 276.3,337.937 251.3,351.104 217.5,348C 214.964,347.814 212.631,347.314 210.5,346.5C 208.898,344.926 206.898,344.259 204.5,344.5C 204.167,344.5 203.833,344.5 203.5,344.5C 202.365,342.787 200.698,342.12 198.5,342.5C 196.216,342.025 194.216,341.025 192.5,339.5C 192.027,338.094 191.027,337.427 189.5,337.5C 189.027,336.094 188.027,335.427 186.5,335.5C 185.738,333.738 184.404,332.738 182.5,332.5C 180.52,331.516 178.853,330.183 177.5,328.5C 177.5,326.5 176.5,325.5 174.5,325.5C 174.167,324.833 173.833,324.167 173.5,323.5C 172.598,321.659 171.264,320.326 169.5,319.5C 169.573,317.973 168.906,316.973 167.5,316.5C 164.726,313.287 162.726,309.62 161.5,305.5C 161.31,302.145 160.31,299.145 158.5,296.5C 157.766,295.292 157.433,293.959 157.5,292.5C 156.542,264.188 156.209,235.854 156.5,207.5 Z"/></g>
<g><path style="opacity:0.86" fill="#cfcfcf" d="M 156.5,207.5 C 156.5,207.167 156.5,206.833 156.5,206.5C 218.833,206.5 281.167,206.5 343.5,206.5C 343.5,212.833 343.5,219.167 343.5,225.5C 287.5,225.5 231.5,225.5 175.5,225.5C 230.998,224.501 286.664,224.168 342.5,224.5C 342.5,218.833 342.5,213.167 342.5,207.5C 280.5,207.5 218.5,207.5 156.5,207.5 Z"/></g>
<g><path style="opacity:0.22" fill="#454545" d="M 343.5,206.5 C 344.491,212.979 344.824,219.646 344.5,226.5C 288.167,226.5 231.833,226.5 175.5,226.5C 175.5,244.833 175.5,263.167 175.5,281.5C 174.167,262.833 174.167,244.167 175.5,225.5C 231.5,225.5 287.5,225.5 343.5,225.5C 343.5,219.167 343.5,212.833 343.5,206.5 Z"/></g>
<g><path style="opacity:0.122" fill="#212121" d="M 280.5,253.5 C 301.66,252.503 322.993,252.169 344.5,252.5C 344.827,262.348 344.494,272.014 343.5,281.5C 343.5,272.167 343.5,262.833 343.5,253.5C 322.5,253.5 301.5,253.5 280.5,253.5 Z"/></g>
<g><path style="opacity:0.819" fill="#9f9f9f" d="M 280.5,253.5 C 301.5,253.5 322.5,253.5 343.5,253.5C 343.5,262.833 343.5,272.167 343.5,281.5C 343.806,284.385 343.473,287.052 342.5,289.5C 342.5,277.833 342.5,266.167 342.5,254.5C 322.167,254.5 301.833,254.5 281.5,254.5C 281.666,263.506 281.5,272.506 281,281.5C 280.768,282.737 280.268,283.737 279.5,284.5C 279.172,273.986 279.506,263.653 280.5,253.5 Z"/></g>
<g><path style="opacity:0.074" fill="#272727" d="M 323.5,272.5 C 324.811,279.735 324.811,287.068 323.5,294.5C 323.408,287.415 323.408,280.082 323.5,272.5 Z"/></g>
<g><path style="opacity:0.655" fill="#5c5c5c" d="M 176.5,287.5 C 177.612,289.599 178.279,291.933 178.5,294.5C 176.837,292.562 176.171,290.228 176.5,287.5 Z"/></g>
<g><path style="opacity:0.71" fill="#777777" d="M 297.5,295.5 C 297.598,297.553 296.931,299.22 295.5,300.5C 295.12,298.302 295.787,296.635 297.5,295.5 Z"/></g>
<g><path style="opacity:0.749" fill="#767676" d="M 341.5,295.5 C 341.405,297.786 340.738,299.786 339.5,301.5C 339.054,298.99 339.72,296.99 341.5,295.5 Z"/></g>
<g><path style="opacity:0.016" fill="#2f2f2f" d="M 158.5,296.5 C 160.31,299.145 161.31,302.145 161.5,305.5C 159.528,302.916 158.528,299.916 158.5,296.5 Z"/></g>
<g><path style="opacity:0.404" fill="#666666" d="M 274.5,301.5 C 274.573,303.027 273.906,304.027 272.5,304.5C 272.427,302.973 273.094,301.973 274.5,301.5 Z"/></g>
<g><path style="opacity:0.498" fill="#6c6c6c" d="M 182.5,303.5 C 183.906,303.973 184.573,304.973 184.5,306.5C 183.094,306.027 182.427,305.027 182.5,303.5 Z"/></g>
<g><path style="opacity:0.29" fill="#474747" d="M 294.5,303.5 C 294.598,305.553 293.931,307.22 292.5,308.5C 292.402,306.447 293.069,304.78 294.5,303.5 Z"/></g>
<g><path style="opacity:0.776" fill="#838383" d="M 322.5,300.5 C 322.655,303.716 321.655,306.383 319.5,308.5C 319.98,305.557 320.98,302.89 322.5,300.5 Z"/></g>
<g><path style="opacity:0.729" fill="#797979" d="M 184.5,306.5 C 185.906,306.973 186.573,307.973 186.5,309.5C 185.094,309.027 184.427,308.027 184.5,306.5 Z"/></g>
<g><path style="opacity:0.114" fill="#2a2a2a" d="M 338.5,304.5 C 338.771,306.38 338.104,307.713 336.5,308.5C 336.66,306.847 337.326,305.514 338.5,304.5 Z"/></g>
<g><path style="opacity:0.757" fill="#6f6f6f" d="M 270.5,307.5 C 270.262,309.404 269.262,310.738 267.5,311.5C 267.738,309.596 268.738,308.262 270.5,307.5 Z"/></g>
<g><path style="opacity:0.38" fill="#494949" d="M 266.5,312.5 C 265.833,313.833 264.833,314.833 263.5,315.5C 263.5,313.5 264.5,312.5 266.5,312.5 Z"/></g>
<g><path style="opacity:0.137" fill="#353535" d="M 334.5,312.5 C 334.573,314.027 333.906,315.027 332.5,315.5C 332.427,313.973 333.094,312.973 334.5,312.5 Z"/></g>
<g><path style="opacity:0.02" fill="#1f1f1f" d="M 167.5,316.5 C 168.906,316.973 169.573,317.973 169.5,319.5C 168.094,319.027 167.427,318.027 167.5,316.5 Z"/></g>
<g><path style="opacity:0.565" fill="#696969" d="M 192.5,315.5 C 194.23,316.026 195.564,317.026 196.5,318.5C 194.368,318.446 193.035,317.446 192.5,315.5 Z"/></g>
<g><path style="opacity:0.012" fill="#393939" d="M 169.5,319.5 C 171.264,320.326 172.598,321.659 173.5,323.5C 171.29,323.106 169.957,321.773 169.5,319.5 Z"/></g>
<g><path style="opacity:0.086" fill="#303030" d="M 199.5,320.5 C 201.027,320.427 202.027,321.094 202.5,322.5C 200.973,322.573 199.973,321.906 199.5,320.5 Z"/></g>
<g><path style="opacity:0.553" fill="#5b5b5b" d="M 256.5,320.5 C 256.027,321.906 255.027,322.573 253.5,322.5C 253.973,321.094 254.973,320.427 256.5,320.5 Z"/></g>
<g><path style="opacity:0.427" fill="#636363" d="M 314.5,319.5 C 314.573,321.027 313.906,322.027 312.5,322.5C 312.427,320.973 313.094,319.973 314.5,319.5 Z"/></g>
<g><path style="opacity:0.58" fill="#515151" d="M 174.5,325.5 C 176.5,325.5 177.5,326.5 177.5,328.5C 176.167,327.833 175.167,326.833 174.5,325.5 Z"/></g>
<g><path style="opacity:0.314" fill="#474747" d="M 206.5,324.5 C 208.553,324.402 210.22,325.069 211.5,326.5C 209.447,326.598 207.78,325.931 206.5,324.5 Z"/></g>
<g><path style="opacity:0.843" fill="#8f8f8f" d="M 249.5,324.5 C 247.383,326.655 244.716,327.655 241.5,327.5C 243.89,325.98 246.557,324.98 249.5,324.5 Z"/></g>
<g><path style="opacity:0.694" fill="#6e6e6e" d="M 309.5,326.5 C 309.573,328.027 308.906,329.027 307.5,329.5C 307.427,327.973 308.094,326.973 309.5,326.5 Z"/></g>
<g><path style="opacity:0.725" fill="#676767" d="M 182.5,332.5 C 184.404,332.738 185.738,333.738 186.5,335.5C 184.596,335.262 183.262,334.262 182.5,332.5 Z"/></g>
<g><path style="opacity:0.427" fill="#5d5d5d" d="M 186.5,335.5 C 188.027,335.427 189.027,336.094 189.5,337.5C 187.973,337.573 186.973,336.906 186.5,335.5 Z"/></g>
<g><path style="opacity:0.216" fill="#414141" d="M 189.5,337.5 C 191.027,337.427 192.027,338.094 192.5,339.5C 190.973,339.573 189.973,338.906 189.5,337.5 Z"/></g>
<g><path style="opacity:0.886" fill="#909090" d="M 300.5,336.5 C 299.415,338.587 297.749,339.92 295.5,340.5C 296.585,338.413 298.251,337.08 300.5,336.5 Z"/></g>
<g><path style="opacity:0.855" fill="#767676" d="M 198.5,342.5 C 200.698,342.12 202.365,342.787 203.5,344.5C 201.597,344.204 199.93,343.537 198.5,342.5 Z"/></g>
<g><path style="opacity:0.978" fill="#9c9c9c" d="M 295.5,340.5 C 294.086,342.598 294.752,343.598 297.5,343.5C 296.22,344.931 294.553,345.598 292.5,345.5C 290.007,345.869 289.34,345.203 290.5,343.5C 291.659,341.75 293.326,340.75 295.5,340.5 Z"/></g>
<g><path style="opacity:0.62" fill="#505050" d="M 290.5,343.5 C 289.34,345.203 290.007,345.869 292.5,345.5C 290.149,347.203 287.482,347.703 284.5,347C 286.063,345.053 288.063,343.886 290.5,343.5 Z"/></g>
<g><path style="opacity:0.51" fill="#6c6c6c" d="M 204.5,344.5 C 206.898,344.259 208.898,344.926 210.5,346.5C 208.102,346.741 206.102,346.074 204.5,344.5 Z"/></g>
<g><path style="opacity:0.334" fill="#606060" d="M 229.5,373.5 C 228.167,373.5 226.833,373.5 225.5,373.5C 225.5,386.5 225.5,399.5 225.5,412.5C 224.504,399.344 224.171,386.01 224.5,372.5C 226.415,372.216 228.081,372.549 229.5,373.5 Z"/></g>
<g><path style="opacity:0.997" fill="#e4e4e4" d="M 229.5,373.5 C 229.334,378.179 229.501,382.845 230,387.5C 232.133,385.147 234.8,384.147 238,384.5C 241.441,384.313 244.441,385.313 247,387.5C 248.37,395.764 248.87,404.097 248.5,412.5C 246.833,412.5 245.167,412.5 243.5,412.5C 243.757,405.794 243.424,399.128 242.5,392.5C 239.138,388.86 235.305,388.526 231,391.5C 229.661,398.426 229.161,405.426 229.5,412.5C 228.167,412.5 226.833,412.5 225.5,412.5C 225.5,399.5 225.5,386.5 225.5,373.5C 226.833,373.5 228.167,373.5 229.5,373.5 Z"/></g>
<g><path style="opacity:0.322" fill="#606060" d="M 337.5,373.5 C 336.167,373.5 334.833,373.5 333.5,373.5C 333.5,386.5 333.5,399.5 333.5,412.5C 332.504,399.344 332.171,386.01 332.5,372.5C 334.415,372.216 336.081,372.549 337.5,373.5 Z"/></g>
<g><path style="opacity:0.998" fill="#e4e4e4" d="M 337.5,373.5 C 337.334,378.179 337.501,382.845 338,387.5C 340.133,385.147 342.8,384.147 346,384.5C 349.441,384.313 352.441,385.313 355,387.5C 356.37,395.764 356.87,404.097 356.5,412.5C 354.833,412.5 353.167,412.5 351.5,412.5C 351.757,405.794 351.424,399.128 350.5,392.5C 347.138,388.86 343.305,388.526 339,391.5C 337.661,398.426 337.161,405.426 337.5,412.5C 336.167,412.5 334.833,412.5 333.5,412.5C 333.5,399.5 333.5,386.5 333.5,373.5C 334.833,373.5 336.167,373.5 337.5,373.5 Z"/></g>
<g><path style="opacity:0.998" fill="#cfcfcf" d="M 214.5,408.5 C 215.5,408.5 216.5,408.5 217.5,408.5C 217.5,409.833 217.5,411.167 217.5,412.5C 210.679,414.098 204.013,413.598 197.5,411C 196.299,410.097 195.465,408.931 195,407.5C 193,398.833 193,390.167 195,381.5C 195.583,379.998 196.416,378.665 197.5,377.5C 203.993,374.857 210.66,374.19 217.5,375.5C 217.5,377.167 217.5,378.833 217.5,380.5C 212.489,380.334 207.489,380.501 202.5,381C 201.333,381.5 200.5,382.333 200,383.5C 199.069,391.272 199.402,398.939 201,406.5C 205.317,408.148 209.817,408.814 214.5,408.5 Z"/></g>
<g><path style="opacity:0.673" fill="#a2a2a2" d="M 148.5,380.5 C 154.645,379.51 160.978,379.177 167.5,379.5C 167.5,378.5 167.5,377.5 167.5,376.5C 159.833,376.5 152.167,376.5 144.5,376.5C 144.5,388.5 144.5,400.5 144.5,412.5C 143.505,400.345 143.171,388.011 143.5,375.5C 151.833,375.5 160.167,375.5 168.5,375.5C 168.5,377.167 168.5,378.833 168.5,380.5C 161.833,380.5 155.167,380.5 148.5,380.5 Z"/></g>
<g><path style="opacity:0.999" fill="#fdfdfd" d="M 148.5,380.5 C 148.5,384.167 148.5,387.833 148.5,391.5C 153.64,392.488 158.974,392.821 164.5,392.5C 164.5,393.5 164.5,394.5 164.5,395.5C 158.974,395.179 153.64,395.512 148.5,396.5C 148.5,400.167 148.5,403.833 148.5,407.5C 154.645,408.49 160.978,408.823 167.5,408.5C 167.5,409.833 167.5,411.167 167.5,412.5C 159.833,412.5 152.167,412.5 144.5,412.5C 144.5,400.5 144.5,388.5 144.5,376.5C 152.167,376.5 159.833,376.5 167.5,376.5C 167.5,377.5 167.5,378.5 167.5,379.5C 160.978,379.177 154.645,379.51 148.5,380.5 Z"/></g>
<g><path style="opacity:0.334" fill="#505050" d="M 261.5,385.5 C 260.167,385.5 258.833,385.5 257.5,385.5C 257.5,392.5 257.5,399.5 257.5,406.5C 256.508,399.352 256.175,392.019 256.5,384.5C 258.415,384.216 260.081,384.549 261.5,385.5 Z"/></g>
<g><path style="opacity:0.997" fill="#eaeaea" d="M 261.5,385.5 C 261.243,392.206 261.576,398.872 262.5,405.5C 263.348,407.761 265.015,408.761 267.5,408.5C 269.839,408.331 272.006,407.664 274,406.5C 275.339,399.574 275.839,392.574 275.5,385.5C 276.833,385.5 278.167,385.5 279.5,385.5C 279.5,394.5 279.5,403.5 279.5,412.5C 277.549,412.773 276.049,412.107 275,410.5C 269.504,414.457 264.004,414.457 258.5,410.5C 257.754,409.264 257.421,407.93 257.5,406.5C 257.5,399.5 257.5,392.5 257.5,385.5C 258.833,385.5 260.167,385.5 261.5,385.5 Z"/></g>
<g><path style="opacity:0.356" fill="#555555" d="M 275.5,385.5 C 276.919,384.549 278.585,384.216 280.5,384.5C 280.827,394.015 280.494,403.348 279.5,412.5C 279.5,403.5 279.5,394.5 279.5,385.5C 278.167,385.5 276.833,385.5 275.5,385.5 Z"/></g>
<g><path style="opacity:0.331" fill="#5c5c5c" d="M 294.5,388.5 C 294.217,389.289 293.717,389.956 293,390.5C 292.506,388.866 292.34,387.199 292.5,385.5C 291.5,385.5 290.5,385.5 289.5,385.5C 289.5,394.5 289.5,403.5 289.5,412.5C 288.506,403.348 288.173,394.015 288.5,384.5C 290.167,384.5 291.833,384.5 293.5,384.5C 293.232,386.099 293.566,387.432 294.5,388.5 Z"/></g>
<g><path style="opacity:0.998" fill="#e7e7e7" d="M 289.5,412.5 C 289.5,403.5 289.5,394.5 289.5,385.5C 290.5,385.5 291.5,385.5 292.5,385.5C 292.34,387.199 292.506,388.866 293,390.5C 293.717,389.956 294.217,389.289 294.5,388.5C 296.249,385.625 298.915,384.292 302.5,384.5C 302.421,385.93 302.754,387.264 303.5,388.5C 300.315,389.658 297.482,391.325 295,393.5C 293.683,399.757 293.183,406.091 293.5,412.5C 292.167,412.5 290.833,412.5 289.5,412.5 Z"/></g>
<g><path style="opacity:0.997" fill="#cfcfcf" d="M 313.5,384.5 C 317.514,384.334 321.514,384.501 325.5,385C 326.38,386.356 326.714,387.856 326.5,389.5C 322.486,389.334 318.486,389.501 314.5,390C 314,390.5 313.5,391 313,391.5C 312.196,396.751 312.363,401.918 313.5,407C 317.7,408.367 322.033,408.867 326.5,408.5C 326.5,409.833 326.5,411.167 326.5,412.5C 308.577,415.782 302.41,408.449 308,390.5C 309.021,387.65 310.854,385.65 313.5,384.5 Z"/></g>
<g><path style="opacity:0.306" fill="#525252" d="M 173.5,395.5 C 177.97,394.514 182.637,394.181 187.5,394.5C 187.784,396.415 187.451,398.081 186.5,399.5C 186.5,398.167 186.5,396.833 186.5,395.5C 182.167,395.5 177.833,395.5 173.5,395.5 Z"/></g>
<g><path style="opacity:0.619" fill="#9e9e9e" d="M 148.5,391.5 C 154.167,391.5 159.833,391.5 165.5,391.5C 165.5,393.167 165.5,394.833 165.5,396.5C 159.833,396.5 154.167,396.5 148.5,396.5C 153.64,395.512 158.974,395.179 164.5,395.5C 164.5,394.5 164.5,393.5 164.5,392.5C 158.974,392.821 153.64,392.488 148.5,391.5 Z"/></g>
<g><path style="opacity:1" fill="#f4f4f4" d="M 173.5,395.5 C 177.833,395.5 182.167,395.5 186.5,395.5C 186.5,396.833 186.5,398.167 186.5,399.5C 182.167,399.5 177.833,399.5 173.5,399.5C 173.5,398.167 173.5,396.833 173.5,395.5 Z"/></g>
<g><path style="opacity:0.247" fill="#404040" d="M 148.5,407.5 C 155.167,407.5 161.833,407.5 168.5,407.5C 168.784,409.415 168.451,411.081 167.5,412.5C 167.5,411.167 167.5,409.833 167.5,408.5C 160.978,408.823 154.645,408.49 148.5,407.5 Z"/></g>
<g><path style="opacity:0.061" fill="#212121" d="M 214.5,408.5 C 215.568,407.566 216.901,407.232 218.5,407.5C 218.784,409.415 218.451,411.081 217.5,412.5C 217.5,411.167 217.5,409.833 217.5,408.5C 216.5,408.5 215.5,408.5 214.5,408.5 Z"/></g>
</svg>
